<?xml version="1.0" encoding="utf-8"?>
<!-- Generator: Adobe Illustrator 24.1.2, SVG Export Plug-In . SVG Version: 6.00 Build 0)  -->
<svg version="1.1" id="Layer_1" xmlns="http://www.w3.org/2000/svg" xmlns:xlink="http://www.w3.org/1999/xlink" x="0px" y="0px"
	 viewBox="0 0 400.924 457.43" enable-background="new 0 0 400.924 457.43" xml:space="preserve">
<g>
	<g>
		<polygon fill="#FFFFFF" points="272.768,202.675 271.447,202.163 270.508,201.254 269.364,200.946 267.94,201.213 
			267.176,200.048 265.748,200.174 264.801,199.399 263.808,198.717 263.27,197.385 261.595,197.67 260.717,196.826 
			259.943,195.866 259.295,194.772 257.967,194.485 257.671,193.009 256.255,192.801 255.967,191.344 255.155,190.466 
			253.331,190.684 253.134,189.134 251.7,188.934 251.019,187.91 250.565,186.615 249.078,186.512 248.356,185.518 247.945,184.113 
			247.007,183.347 245.851,182.879 244.61,182.56 243.947,181.375 242.776,180.969 241.881,180.091 240.458,180.202 
			239.579,179.262 238.023,179.841 237.474,178.003 236.01,178.514 235.059,177.551 233.635,178.216 233.032,177.222 
			233.975,177.279 234.933,176.642 235.918,175.924 236.973,175.114 238.227,175.333 239.434,174.784 240.661,174.981 
			241.707,176.092 242.844,176.317 243.874,176.91 245.426,176.082 246.212,177.316 247.76,176.851 248.288,178.434 
			249.131,179.323 250.625,179.155 251.276,180.328 252.888,180.112 253.027,181.928 254.772,181.626 255.113,183.102 
			255.796,184.123 257.387,184.119 257.635,185.614 258.426,186.5 260.213,186.378 260.835,187.454 261.843,188.149 
			261.746,189.882 262.89,190.445 263.78,191.248 264.098,192.552 265.77,192.696 266.155,193.94 267.455,194.426 267.626,195.824 
			268.223,196.868 269.064,197.725 270.368,198.242 270.708,199.478 270.662,200.976 272.027,201.467 		"/>
	</g>
	<g>
		<polygon fill="#FFFFFF" points="197.139,189.584 197.147,191.318 195.348,191.825 196.007,193.463 195.609,194.62 
			194.813,195.568 193.749,196.348 192.849,197.199 192.081,198.118 191.279,199.005 191.009,200.259 189.794,200.843 
			190.215,202.655 189.192,203.382 187.575,203.591 187.652,205.224 186.652,205.937 185.404,206.399 184.684,207.351 
			184.466,208.825 183.068,209.094 182.77,210.534 181.732,211.177 180.788,211.919 179.313,212.005 179.199,213.778 
			178.149,214.39 177.009,214.87 175.765,215.187 175.181,216.444 173.635,216.284 173.1,217.653 171.579,217.47 170.51,217.993 
			170.242,219.906 168.66,219.538 168.032,220.891 166.813,221.154 165.419,221.039 164.767,222.434 163.542,222.645 
			162.082,222.303 160.981,222.738 160.014,223.503 159.086,224.396 157.73,224.184 156.715,224.865 155.48,224.929 
			154.613,226.094 153.799,226.188 153.934,224.954 155.862,225.593 156.222,224.026 157.6,223.865 157.902,222.253 
			159.564,222.453 160.698,221.942 161.53,221.046 162.233,219.99 162.8,218.768 163.992,218.33 164.574,217.136 165.589,216.476 
			167.179,216.505 168.091,215.711 169.216,215.169 169.224,213.31 170.735,213.222 170.885,211.545 172.623,211.71 
			173.789,211.208 174.037,209.652 175.391,209.362 175.507,207.663 177.405,207.985 177.366,206.115 178.942,206.068 
			180.09,205.537 180.232,203.876 181.814,203.832 182.79,203.108 182.727,201.22 183.861,200.674 184.59,199.674 186.405,199.896 
			186.976,198.719 187.793,197.812 189.148,197.516 189.213,195.757 190.484,195.372 190.898,194.007 192.337,193.826 
			193.373,193.185 194.189,192.281 194.594,190.896 195.838,190.5 		"/>
	</g>
	<g>
		<polygon fill="#FFFFFF" points="192.347,234.121 191.517,235.05 190.675,236.245 189.636,236.913 188.24,236.574 187.442,237.934 
			185.821,236.933 184.625,237.15 183.78,238.384 182.344,237.903 180.948,237.544 180.202,239.065 179.052,239.416 
			178.066,240.233 177.09,241.068 175.538,240.307 174.704,241.518 173.219,240.985 172.372,242.135 170.869,241.604 
			170.106,242.932 168.682,242.645 168.32,244.838 166.946,244.676 166.072,245.626 164.887,245.901 164.075,246.932 
			162.026,245.568 161.891,247.85 160.985,248.644 159.776,248.91 158.337,248.838 157.051,249.062 155.909,249.536 
			154.757,250.016 154.22,251.329 152.419,251.587 153.894,253.728 152.906,254.623 150.892,254.826 151.7,256.691 150.678,257.414 
			149.259,257.725 148.651,258.677 148.644,260.453 147.031,260.135 146.268,261.73 144.799,261.053 144.097,259.859 
			145.141,258.496 143.125,257.42 143.419,256.194 143.992,255.025 144.976,254.014 144.321,252.552 146.121,251.899 
			145.363,250.313 147.165,249.804 147.823,248.836 146.418,246.678 148.456,246.497 148.032,244.746 149.166,244.054 
			150.77,243.813 150.477,241.95 151.677,241.405 153.48,241.558 154.382,240.822 154.957,239.683 155.446,238.374 157.01,238.488 
			157.733,237.454 159.007,237.237 159.362,235.549 160.778,235.584 160.9,233.343 163.125,234.922 163.453,232.958 
			164.988,233.335 165.346,231.308 167.178,232.367 168.444,232.257 169.414,231.498 170.275,230.474 171.024,229.165 
			172.373,229.252 173.16,228.011 174.351,227.728 176.064,228.694 177.163,228.193 178.457,228.152 178.741,225.731 
			180.389,226.513 180.787,224.419 182.655,225.654 184.002,225.674 184.458,223.79 185.985,224.172 186.256,222.028 
			188.359,223.462 188.4,221.01 190.191,221.736 191.519,221.585 191.507,219.589 193.335,219.439 194.078,218.491 192.818,216.35 
			193.886,215.585 194.182,214.351 196.56,214.419 196.567,213.007 197.049,211.89 198.552,211.456 197.647,209.386 
			199.012,208.872 198.806,207.226 200.498,206.991 201.462,206.232 202.046,205.165 201.969,203.463 203.362,203.102 
			205.223,203.413 205.324,201.632 206.11,200.216 207.764,200.587 208.841,201.607 208.587,202.966 210.016,203.995 
			208.091,205.177 210.211,206.542 208.853,207.579 207.57,208.521 208.115,209.844 207.231,210.823 208.489,212.446 
			208.144,213.611 206.422,214.265 207.17,215.836 205.206,216.313 206.14,218.026 204.89,218.767 204.605,219.959 203.318,220.627 
			203.523,222.099 203.771,223.644 201.318,223.543 201.027,224.756 200.982,226.167 201.098,227.747 200.497,228.836 
			199.112,229.29 198.609,230.463 197.006,230.638 196.903,232.226 196.157,233.226 194.709,233.437 194.364,234.948 		"/>
	</g>
	<g>
		<polygon fill="#FFFFFF" points="242.828,201.269 243.287,201.278 244.537,201.675 244.377,203.649 245.755,203.905 
			247.348,203.921 247.115,205.98 248.275,206.481 250.053,206.29 250.85,207.197 251.428,208.352 252.768,208.65 253.204,209.956 
			254.743,210.02 255.691,210.751 255.766,212.47 256.785,213.125 258.323,213.19 258.264,215.069 259.529,215.447 260.84,215.771 
			261.73,216.574 261.617,218.528 263.682,217.987 263.549,219.964 264.794,220.359 266.182,220.588 267.249,221.188 
			267.705,222.499 269.202,222.601 269.264,224.374 270.072,225.281 271.498,225.464 271.887,226.865 272.353,228.18 
			273.954,228.153 274.848,228.962 276.022,229.437 277.205,229.9 277.43,231.517 278.837,231.713 279.193,233.177 280.557,233.421 
			280.905,234.9 282.367,235.018 282.85,236.335 284.826,235.807 285.371,237.046 286.584,237.453 287.381,238.384 288.631,238.739 
			288.398,240.973 290.403,240.359 291.559,240.985 292.171,242.265 292.315,243.692 292.6,244.952 293.021,246.095 293.365,247.26 
			294.465,248.064 294.147,249.496 296.342,249.982 296.27,251.318 295.125,252.83 296.784,253.761 296.5,255.02 295.593,256.04 
			295.388,256.912 294.88,258.435 293.707,257.339 292.168,257.971 291.176,257.12 290.172,256.378 289.893,254.728 
			287.853,255.309 287.046,254.331 286.426,253.226 285.702,252.125 284.206,252.363 283.779,250.634 282.181,251.058 
			281.732,249.366 280.743,248.668 278.724,249.854 278.366,248.002 276.742,248.449 275.901,247.477 275.325,246.044 
			273.642,246.562 272.812,245.583 272.381,243.936 271.375,243.281 270.119,243.042 268.757,242.96 268.218,241.557 267,241.235 
			266.248,240.196 264.638,240.441 264.022,239.212 262.071,239.878 262.365,237.419 260.562,237.824 260.162,236.371 
			258.298,236.767 258.346,234.813 257.688,233.752 256.627,233.155 255.394,232.723 253.969,232.453 253.5,231.212 
			252.128,230.832 251.443,229.802 251.709,227.996 250.939,227.092 250.552,225.904 248.333,226.014 248.664,224.335 
			246.701,224.129 247.529,222.24 247.416,220.961 245.689,220.491 245.998,219.029 244.067,218.525 245.489,216.696 
			243.315,216.168 244.24,214.619 244.401,213.352 242.65,212.532 243.736,211.089 243.684,209.902 241.62,208.965 241.949,207.695 
			241.512,206.498 243.269,205.212 242.584,204.034 242.413,202.831 243.347,201.668 		"/>
	</g>
	<g>
		<polygon fill="#FFFFFF" points="219.855,213.314 220.685,214.042 221.078,215.183 220.875,216.45 221.44,217.551 221.878,218.724 
			221.095,219.926 222.019,221.159 221.357,222.308 220.859,223.436 221.02,224.669 221.001,225.89 220.042,226.878 
			220.027,228.105 220.107,229.387 219.013,230.27 218.753,231.441 218.827,232.77 218.265,233.84 217.536,234.815 217.196,236.009 
			216.28,236.853 215.804,238.074 214.222,238.596 214.104,237.095 214.042,235.911 213.758,234.664 214.584,233.588 
			214.585,232.372 214.586,231.145 214.881,229.987 215.844,229.001 215.419,227.636 216.304,226.594 216.108,225.369 
			215.716,224.195 215.483,223.021 215.633,221.794 215.084,220.647 215.516,219.38 215.496,218.18 215.142,216.978 
			215.632,215.827 216.271,214.882 216.598,213.751 217.651,213.23 218.814,212.873 		"/>
	</g>
	<g>
		<polygon fill="#FFFFFF" points="234.349,231.75 235.108,231.825 236.174,232.45 237.148,233.234 237.842,234.266 237.929,235.632 
			239.011,236.425 239.453,237.564 239.408,238.853 240.381,239.839 239.837,241.193 240.595,242.285 240.701,243.494 
			240.142,244.734 240.658,245.917 241.068,247.141 239.978,248.277 241.073,249.612 240.191,250.71 239.528,251.794 
			239.689,253.067 239.613,254.315 238.37,255.126 238.257,256.37 238.202,257.716 236.766,258.227 236.237,259.291 235.961,260.68 
			234.973,261.442 233.813,261.921 232.889,262.821 231.599,262.886 230.503,263.684 229.236,263.85 228.014,263.134 
			226.806,263.083 225.086,262.937 226.672,262.126 227.286,261.036 227.811,259.905 228.554,258.976 229.955,258.483 
			229.769,256.938 231.123,256.315 231.401,255.093 231.495,253.828 231.776,252.667 232.5,251.642 232.317,250.362 233.28,249.345 
			233.58,248.165 233.315,246.909 233.897,245.758 234.388,244.579 233.877,243.333 233.954,242.127 233.772,240.914 
			233.569,239.711 234.194,238.515 233.786,237.305 234.294,236.099 233.924,234.893 234.449,233.69 234.004,232.477 		"/>
	</g>
	<g>
		<polygon fill="#FFFFFF" points="196.171,248.818 195.769,249.936 195.923,251.162 195.2,252.16 195.053,253.411 194.732,254.65 
			194.147,255.756 193.04,256.436 192.081,257.197 191.213,258.03 189.967,258.446 189.502,259.73 188.683,260.638 187.824,261.51 
			186.796,262.163 185.415,262.298 184.773,263.495 183.738,264.123 182.457,264.347 181.784,265.576 180.307,265.43 
			179.543,266.539 178.458,267.076 177.077,267.023 176.225,268.014 175.325,268.945 173.785,268.469 173.19,270.14 
			171.783,269.919 170.496,269.931 169.54,270.81 168.495,271.499 167.071,270.978 166.039,271.711 165.006,272.595 
			163.642,271.855 162.869,272.412 162.766,271.377 163.479,270.411 164.397,269.612 164.823,268.442 165.893,267.8 
			166.254,266.541 167.018,265.641 168.351,265.279 169.076,264.349 169.454,263.104 170.868,262.797 171.389,261.693 
			171.838,260.557 172.538,259.636 173.947,259.168 173.667,257.632 175.027,257.023 175.214,255.835 176.163,254.972 
			177.269,254.386 178.573,254.345 179.576,253.448 180.984,253.796 182.188,253.525 183.238,252.732 184.554,252.846 
			185.853,252.902 186.87,251.969 188.063,251.649 189.182,251.08 190.29,250.495 191.659,250.734 192.687,249.927 194.028,250.009 
			195.037,249.196 		"/>
	</g>
	<g>
		<polygon fill="#FFFFFF" points="288.093,274.708 287.709,275.395 286.56,275.781 285.373,275.971 284.259,276.632 
			283.014,276.959 281.867,276.043 280.795,275.499 279.536,275.616 278.4,275.234 277.327,274.7 276.446,273.831 275.232,273.526 
			274.422,272.583 273.215,272.213 272.036,271.772 270.982,271.155 270.297,270.078 269.487,269.169 268.578,268.38 
			267.983,267.207 266.65,266.931 265.605,266.309 264.568,265.685 263.666,264.894 263.077,263.654 261.739,263.475 
			260.746,262.809 259.928,261.809 258.553,261.886 257.756,260.665 256.32,260.745 257.078,259.642 258.34,259.15 258.832,257.974 
			259.527,256.874 261.063,257.162 261.747,255.575 263.105,256.037 264.26,256.458 265.475,256.16 266.724,256.207 
			267.481,257.474 268.704,257.646 270.038,257.768 270.487,259.227 271.565,259.76 272.966,259.943 273.827,260.797 
			274.539,261.806 275.672,262.363 276.266,263.481 277.504,263.947 278.384,264.777 278.727,266.127 279.639,266.923 
			280.868,267.413 281.127,268.843 282.194,269.482 283.292,270.074 284.15,270.905 284.463,272.356 286.017,272.372 
			286.433,273.801 287.609,274.224 		"/>
	</g>
	<g>
		<polygon fill="#FFFFFF" points="196.365,262.534 195.829,264.183 196.996,265.117 197.075,266.448 195.858,267.371 
			195.847,268.727 195.457,270.222 193.255,269.531 193.9,271.97 192.133,271.921 190.674,271.985 190.146,273.403 189.261,274.513 
			187.728,273.265 186.509,274.116 185.734,275.539 184.184,274.484 183.13,274.958 181.904,275.915 180.608,275.888 
			179.582,274.957 178.099,274.85 177.715,273.199 178.661,271.794 179.875,271.483 181.265,272.093 182.27,271.454 
			183.053,270.487 184.558,270.617 185.237,269.601 185.935,268.493 187.072,267.897 188.84,268.757 188.78,266.652 
			190.517,267.111 191.476,266.299 191.911,264.803 193.063,264.367 194.119,263.946 194.685,262.675 		"/>
	</g>
	<g>
		<polygon fill="#FFFFFF" points="226.453,273.003 227.377,273.465 227.673,274.998 229.082,275.788 230.408,276.666 
			231.409,277.766 231.452,279.41 231.819,280.848 232.424,282.153 232.168,283.868 233.842,284.665 234.721,285.854 
			235.546,287.08 235.939,288.485 235.299,290.267 236.849,291.238 237.251,292.631 236.855,294.266 238.482,295.288 
			237.374,297.087 238.769,298.214 239.034,299.637 238.142,301.288 239.31,302.523 240.354,303.819 238.659,305.508 
			241.135,306.67 239.946,308.238 239.224,309.713 240.164,311.105 240.738,312.547 239.05,313.936 239.732,315.391 240.698,316.93 
			238.757,318.125 238.936,319.581 239.998,321.279 239.483,322.663 238.575,323.905 238.732,325.518 237.499,326.582 
			237.766,328.352 237.101,329.704 235.213,330.233 234.515,331.502 233.043,333.508 234.369,331.287 234.101,329.749 
			233.678,328.245 233.85,326.848 235.561,325.514 233.75,324.024 235.393,322.574 234.792,321.143 233.923,319.765 
			233.531,318.373 234.083,316.867 232.948,315.586 234.067,313.95 233.976,312.494 232.885,311.24 233.416,309.649 
			233.809,308.067 232.394,306.917 232.082,305.504 231.317,304.211 230.529,302.931 231.247,301.228 230.093,300.053 
			230.594,298.398 229.5,297.211 230.012,295.547 228.758,294.412 229.062,292.811 226.988,291.92 227.205,290.347 226.361,289.085 
			226.203,287.626 225.322,286.361 226.897,284.472 224.813,283.477 224.286,282.084 224.379,280.568 224.936,279.026 
			225.305,277.574 225.559,276.199 226.009,274.954 225.843,273.518 		"/>
	</g>
	<g>
		<polygon fill="#FFFFFF" points="255.826,266.334 255.08,267.969 256.598,268.619 258.386,268.613 257.355,270.724 
			259.829,270.706 259.77,272.312 260.468,273.213 261.533,273.873 262.846,274.075 263.282,276.102 264.778,275.761 
			266.234,274.904 266.806,276.914 268.002,277.026 269.763,276.217 270.505,277.286 271.605,277.487 272.936,277.095 
			273.923,278.066 274.978,276.835 276.546,276.627 277.198,278.341 276.641,279.066 277.085,280.732 275.084,280.604 
			274.365,281.654 273.36,282.422 272.159,282.904 270.877,281.109 269.832,283.165 268.503,281.619 267.326,282.018 
			265.917,282.068 264.778,281.785 263.981,280.643 262.723,280.653 261.994,279.271 261.027,278.643 259.565,278.799 
			259.194,277.433 258.998,275.711 257.089,276.093 256.318,275.235 255.485,274.381 253.974,273.905 254.903,272.048 
			253.346,271.464 254.018,270.215 253.866,269.008 254.88,268.111 254.597,266.744 		"/>
	</g>
	<g>
		<path fill="#FFFFFF" d="M321.973,273.502l1.27,0.566l1.917-0.735l1.313,1.447l1.562,0.608l1.881,0.161l0.8,1.848l1.297,1.043
			l1.363,0.99l1.586,0.83l0.987,1.407l1.297,1.171l0.762,1.557l0.232,1.816l1.633,1.101l0.689,1.611l-0.239,1.832l-0.208,1.615
			l-0.075,1.851l-1.809-0.443l-1.764,0.296l-1.262-1.286l-1.587-0.642l-1.328-0.91l-0.875-1.392l-1.482-0.823l-1.294-1.095
			l0.062-1.921l-0.959-1.302l-0.543-1.519l-1.389-1.159l0.16-1.828l-0.566-1.531l-0.715-1.476l-1.106-1.269l-0.54-1.595
			L321.973,273.502z M338.748,289.681l-0.156-1.976l-1.772-0.756l-0.432-1.733l-1.381-0.813l-1.744-0.041l-0.893-1.662l-1.993-0.683
			l0.642,2.041l1.204,1.213l0.713,1.429l1.304,0.912l1.17,1.019l1.349,1.177L338.748,289.681z"/>
	</g>
	<g>
		<polygon fill="#FFFFFF" points="158.801,283.115 156.743,284.779 155.669,285.951 154.359,286.862 151.821,286.812 
			150.73,288.162 150.79,290.285 149.472,291.429 149.41,293.34 148.098,294.516 146.771,295.711 146.119,297.272 144.481,298.328 
			144.6,300.282 143.271,301.488 142.117,302.768 143.484,305.437 140.883,305.885 140.191,307.408 140.66,309.77 137.666,309.917 
			137.214,311.839 137.371,313.523 138.368,315.287 137.802,316.844 138.257,318.564 137.467,320.083 135.61,321.247 
			137.112,323.467 136.47,325.131 134.304,325.6 132.84,325.984 131.173,327.925 132.988,325.734 131.61,323.884 133.171,322.432 
			132.856,320.687 133.099,319.03 134.366,317.598 133.529,315.692 133.055,313.84 135.645,312.788 135.559,311.038 
			136.328,309.528 135.142,307.41 137.427,306.391 138.154,304.886 138.671,303.311 138.471,301.455 139.82,300.201 
			138.658,297.897 139.558,296.445 139.928,294.745 141.979,293.892 141.481,291.71 142.181,290.135 144.586,289.661 
			144.679,287.683 145.906,286.491 146.887,285.085 148.903,284.818 150.431,284.29 151.687,283.54 152.706,281.043 
			154.403,283.133 156.628,281.101 		"/>
	</g>
	<g>
		<polygon fill="#FFFFFF" points="293.452,286.944 294.479,287.168 295.681,288.313 296.592,289.699 298.245,290.486 
			299.525,291.67 300.335,293.176 301.251,294.625 301.872,296.222 301.661,298.112 302.157,299.689 303.119,301.18 
			303.126,302.882 303.56,304.591 302.963,306.24 302.03,307.491 301.16,306.26 300.727,304.635 299.578,303.4 299.168,301.795 
			298.726,300.216 297.061,299.099 297.376,297.23 296.733,295.716 295.438,294.426 295.902,292.514 295.344,290.963 
			294.574,289.488 293.42,288.19 		"/>
	</g>
	<g>
		<polygon fill="#FFFFFF" points="217.785,311.863 216.625,311.36 215.078,310.362 214.849,308.375 213.866,306.951 
			212.749,305.629 211.097,304.799 209.921,303.587 208.529,302.686 207.091,302.231 205.648,300.3 204.534,302.053 
			204.027,303.677 202.304,304.757 202.815,306.791 202.005,308.319 200.861,309.755 201.091,311.638 199.366,312.883 
			200.207,314.992 197.688,315.926 197.848,317.815 196.976,318.856 195.664,319.241 194.046,320.063 192.803,321.874 
			190.483,320.738 189.602,323.243 187.731,323.346 185.818,323.46 184.697,325.13 182.81,325.372 181.776,327.069 179.878,327.365 
			178.597,328.62 176.803,329.16 175.5,330.378 173.828,331.143 172.5,332.336 171.954,334.366 171.003,335.9 169.125,336.509 
			167.707,337.605 167.383,339.673 165.252,340.175 165.462,342.598 163.483,343.288 161.866,344.306 161.363,346.112 
			160.472,347.639 159,348.814 158.896,350.801 156.986,351.772 156.057,353.305 155.194,354.877 154.414,356.491 154.027,358.272 
			153.095,359.825 152.824,361.631 153.095,363.598 151.737,365.026 151.834,366.901 151.39,368.61 151.865,370.525 
			150.942,372.121 149.45,373.653 149.374,375.449 149.252,377.231 150.214,379.103 149.459,380.811 149.637,382.585 
			148.772,384.342 149.505,386.109 149.799,387.859 149.546,389.642 148.788,391.503 149.636,393.197 151.244,394.726 
			151.617,396.421 149.768,398.631 151.41,400.061 150.724,402.107 152.261,403.495 153.531,404.914 152.563,407.188 
			153.905,408.565 154.312,410.341 155.701,411.639 156.107,413.438 157.025,414.97 158.277,416.286 159.292,417.74 
			161.301,419.894 159.104,417.961 158.353,416.074 155.622,416.697 154.914,414.811 153.558,413.696 152.07,412.686 
			150.934,411.329 150.676,409.291 149.312,408.153 148.133,406.846 147.721,405.071 146.296,403.862 145.931,402.106 
			145.228,400.519 143.746,399.173 144.357,397.162 143.349,395.615 143.424,393.821 144.098,391.987 142.739,390.395 
			141.815,388.682 143.737,386.902 141.681,385.118 143.791,383.487 143.706,381.757 142.183,379.803 142.569,378.067 
			144.919,376.737 143.622,374.676 144.543,373.097 144.529,371.276 146.026,369.903 146.824,368.342 145.758,366.113 
			146.863,364.647 147.38,362.961 147.483,361.089 148.874,359.778 149.716,358.236 149.983,356.41 152.342,355.651 
			153.264,354.179 152.377,351.694 154.568,350.928 155.261,349.314 154.826,346.992 157.744,346.762 157.085,344.251 
			158.614,343.161 159.072,341.347 160.511,340.212 162.529,339.52 163.768,338.277 164.346,336.531 164.791,334.659 
			165.537,333.007 166.509,331.53 167.394,329.971 168.542,328.632 170.277,327.815 172.299,327.285 173.45,325.978 174.28,324.362 
			174.726,322.353 176.131,321.271 178.545,321.233 178.866,319.048 180.792,318.548 182.044,317.336 182.45,315.154 
			184.998,315.428 185.322,313.102 186.273,311.483 187.713,310.456 189.758,310.238 190.777,308.667 192.289,307.757 
			193.338,306.164 194.55,305.724 195.279,304.442 195.955,302.743 196.487,301.059 197.226,299.469 197.319,297.508 
			199.269,296.757 200.58,295.778 201.979,295.031 203.108,292.939 205.019,293.309 206.86,293.051 208.825,292.941 
			209.694,295.544 211.304,296.061 212.836,296.848 214.467,297.67 215.677,298.986 216.172,300.763 216.591,302.457 
			218.109,303.755 219.031,305.415 219.484,307.244 218.956,309.095 218.799,310.91 		"/>
	</g>
	<g>
		<path fill="#FFFFFF" d="M113.308,334.589l-0.868,0.919l0.351,1.972l-1.53,0.821l-1.178,1.056l-0.908,1.346l-0.957,1.266
			l-0.313,1.393l0.109,0.499l1.462,0.795l-0.565,1.81l-1.669,1.145l0.088,1.862l-0.971,1.412l-1.13,1.323l0.225,1.983l-0.334,1.747
			l-0.947,1.432l-0.753,1.558l-1.108,1.341l-2.01,0.533l-1.161,1.081l-1.076,1.471l-1.609-0.6l-1.443-1.163l-0.037-1.797
			l0.303-1.695l0.017-1.669l0.864-1.538l-0.25-1.754l0.859-1.482l0.82-1.454l-0.778-2.177l1.918-0.928l0.718-1.503l0.032-2.017
			l2.198-0.451l1.078-1.236l0.966-1.358l0.731-1.701l1.474-0.87l1.157-1.334l1.637-0.593l1.922,0.131l1.038-1.905L113.308,334.589z
			 M97.802,358.344l2.165,0.024l0.565-2.019l1.475-0.813l0.861-1.384l0.275-1.619l0.27-1.581l-0.151-1.662l0.559-1.5l0.643-1.501
			l0.628-1.235l-1.778,0.485l-0.398,1.851l-1.214,1.232l-1.282,1.241l0.166,2.008l-0.219,1.727l-0.716,1.495l-0.357,1.628
			L97.802,358.344z"/>
	</g>
	<g>
		<polygon fill="#FFFFFF" points="337.896,338.786 338.741,339.832 339.956,340.757 341.037,341.928 341.566,343.463 
			343.332,344.409 343.817,346.001 344.126,347.638 344.087,349.358 345.681,350.614 345.402,352.376 345.36,354.039 
			345.527,355.639 345.126,357.148 344.541,357.918 344.105,356.199 343.467,354.714 342.534,353.347 341.974,352.049 
			342.23,353.542 341.836,355.045 341.644,356.639 342.07,358.187 341.857,360.135 343.367,361.19 344.148,362.684 344.753,363.501 
			343.915,364.51 342.017,364.965 340.304,363.938 338.987,362.555 338.323,360.851 338.849,358.881 338.498,357.24 
			337.514,355.667 337.606,353.928 336.954,352.246 337.205,350.506 337.52,348.78 337.445,347.065 338.042,345.364 337.54,343.633 
			337.99,341.94 338.346,340.246 		"/>
	</g>
	<g>
		<polygon fill="#FFFFFF" points="88.265,346.195 87.868,347.985 87.478,349.782 87.089,351.564 86.594,353.268 85.508,354.534 
			85.746,352.82 85.195,351.074 85.006,349.29 85.181,347.494 86.531,346.507 		"/>
	</g>
	<g>
		<polygon fill="#FFFFFF" points="256.728,439.133 255.481,440.946 253.82,441.704 252.617,442.941 251.025,443.609 249.39,444.423 
			247.594,443.984 245.845,444.173 244.092,444.042 242.361,443.738 240.581,443.605 238.947,442.908 237.296,442.309 
			235.561,441.973 234.065,440.931 232.318,440.615 230.784,439.687 228.99,439.507 227.253,439.198 225.707,438.292 
			224.028,437.778 222.318,437.392 220.558,437.39 218.847,437.307 217.241,437.595 215.77,438.624 213.82,438.831 212.322,439.907 
			210.664,440.719 208.794,440.7 206.893,440.949 206.92,439.011 208.381,437.892 209.692,436.592 211.51,436.135 212.9,434.825 
			214.886,434.883 216.462,433.965 218.227,433.888 219.974,433.696 221.739,433.571 223.563,433.19 225.217,434.186 
			227.123,433.789 228.79,434.507 230.408,435.312 232.22,435.532 233.802,436.408 235.601,436.69 237.167,437.598 238.89,438.08 
			240.51,438.872 242.246,439.312 243.944,439.92 245.714,440.245 247.544,440.029 249.315,439.957 251.091,440.291 
			252.882,440.241 254.56,439.504 		"/>
	</g>
</g>
<g>
	<path fill="#FFFFFF" d="M302.756,380.347l-0.56-3.151l2.569-1.277l-2.39-2.089l2.249-1.597l-0.747-1.782l0.234-1.79l0.637-1.899
		l-0.113-1.84l-3.097-1.075l0.138-1.823l-0.96-1.493l1.032-2.268l-2.146-0.994l-0.779-1.544l-0.88-1.492l-0.788-1.541l0.18-2.119
		l-0.047-2.047l-2.006-0.824l-1.262-1.269l0.025-2.162l-1.652-0.989l-0.192-2.059l-0.993-1.477l-2.882,0.023l0.609-2.752
		l-2.484-0.24l-1.017-1.439l-1.545-0.987l-1.358-1.141l-0.535-1.872l-0.75-1.693l-0.295-2.123l-2.039-0.522l-2.057-0.49
		l-1.135-1.349l-1.056-1.427l-0.242-2.212l-1.621-0.891l-2.013-0.508l-0.544-1.931l-0.322-2.15l-1.919-0.595l-2.054-0.464
		l-0.563-1.913l-1.226-1.267l-1.897-0.622l-0.759-1.714l-1.59-0.923l0.338-2.726l-1.507-0.996l-2.432-0.173l-1.239-1.268
		l-0.572-1.842l-0.812-1.613l-1.012-1.438l-2.532-0.277l0.459-2.536l-0.406-1.817l-2.015-0.774l-0.754-1.33l-1.213,1.46l1.859,1.868
		l0.011,1.749l-1.505,1.669l1.357,1.813l-1.145,1.693l1.316,1.788l-1.043,1.712l0.897,1.741l-2.579,1.771l0.127,1.798l0.896,1.742
		l1.583,0.958l1.114-0.006l0.611-1.755l0.619-1.797l1.884-0.739l1.182-1.946l2.679-0.145l1.729,1.639l-0.378,2.461l0.575,1.562
		l1.446,1.269l0.936,1.535l-0.596,1.974l0.179,1.732l0.235,1.715l0.269,1.705l1.397,1.503l0.27,1.719l-0.2,1.803l1.223,2.027
		l-2.122,0.017l-1.623,0.376l-1.625-0.081l-2.317-1.351l-0.596,2.587l-1.498,0.775l-0.01,1.997l-0.865,1.293l-2.556,0.718
		l0.334,1.964l-1.382,1.356l-1.139,1.439l-0.452,1.629l1.293,2.266l-1.377,1.304l-1.778,0.958l-0.537,1.542l0.115,2.638
		l-2.482-1.566l-1.655,0.452l-1.651,0.607l-1.716,0.842l-1.886,0.899l-1.951,0.021l-1.755-0.879l-1.672-0.918l-0.368-2.785
		l-2.315,0.19l-1.123-1.412l-0.895-1.561l-1.909-0.783l-1.547-1.148l0.568-2.481l-0.285-1.88l-1.804-1.009l-1.001-1.479
		l-0.847-1.568l-0.266-1.92l-1.652-1.087l-0.38-1.908l-1.778-0.922l-1.72-0.838l-1.431-0.967l-0.692-1.803l-1.203-1.358
		l-1.542-0.912l-1.304-1.769l-2.146,0.874l-1.788,0.114l-1.144-0.006l0.033,0.967l0.883,2.068l2.328-0.147l0.022,2.417l-2.226-0.245
		l-1.066,2.054l-2.371-0.923l-0.991,1.95l-1.555,0.81l-2.275-0.262l-0.855,1.912l-0.824,1.824l-2.802-0.664l0.452,3.243l-2.35,0.015
		l-1.955,0.546l-0.491,2.011l-0.702,1.746l-2.646,0.042l-0.45,1.953l-0.071,2.192l-2.745,0.145l-0.643,1.741l0.358,2.388
		l-1.112,1.363l-1.438,1.173l-0.19,1.933l-1.612,1.101l0.223,2.118l-0.713,1.59l-2.159,0.887l-0.548,1.695l0.381,2.093l-2.347,0.912
		l-0.027,1.897l0.096,1.915l-0.612,1.638l-2.386,1.06l1.562,2.343l-2.38,1.138l0.156,1.883l0.461,1.929l-0.091,1.77l-1.198,1.544
		l0.789,1.92l-1.876,1.481l-0.436,1.734l0.783,1.861l-1.154,1.678l-0.97,1.742l1.262,1.823l-0.049,1.77l0.544,1.746l0.615,1.71
		l-1.185,1.886l1.16,1.627l-0.8,1.939l1.201,1.56l-0.659,2.017l1.519,1.403l-0.23,1.984l2.576,0.825l0.053,1.888l1.315,1.246
		l0.674,1.606l1.498,1.023l-0.716,2.855l2.767-0.159l1.414,0.963l1.031,1.407l0.872,1.745l1.197,1.428l1.442,1.114l1.503,1.063
		l1.972-0.048l1.344,1.605l2.377-1.737l1.539,0.985l1.384,2.156l2.056-1.537l1.689,0.654l1.692,1.134l1.805-0.146l1.796-1.432
		l1.778,1.253l1.711-1.475l1.685,0.246l1.573-0.627l2.157,0.682l0.949-2.622l1.807-0.267l1.855,0.047l1.874,0.425l1.59-1.386
		l1.9,1.468l1.688-1.487l1.747,1.584l1.704,0.248l1.959-2.344l1.548,1.999l1.962-1.185l1.653,0.85l1.483,1.525l2.062-1.177
		l1.594,0.932l1.338,1.878l1.679,0.495l1.838-0.092l1.903-0.331l1.429,1.524l1.83-0.039l1.591,0.964l2.024-0.947l1.56,1.168
		l2.105-1.716l1.293,2.94l1.999-1.48l1.621,1.32l1.908-1.67l1.756,2.004l1.973-0.099l1.601-0.898l1.428-1.257l1.208-1.614
		l1.863-0.167l1.093-1.638l1.594-0.698l2.413,0.452l1.438-1.09l1.738-0.726l-0.178-2.919l2.309-0.112l-0.168-2.6l2.712,0.074
		l1.635-0.996l-0.253-2.424l1.919-0.831l-0.727-2.539l3.015-0.293l-1.244-2.661l2.261-0.857l1.274-1.402l-1.097-2.346l2.176-1.098
		l0.723-1.658l-1.809-2.353l0.98-1.542l-0.047-1.79l2.544-1.317l-0.535-1.894l0.003-1.786l1.283-1.664l-1.969-1.917l0.98-1.711
		l-1.214-1.772l1.313-1.761l0.252-1.781l-0.364-1.754l-1.453-1.635l0.621-1.826l1.373-1.981l-1.763-1.517l-1.288-1.537l0.262-1.839
		l-0.13-1.774l0.351-1.925l-1.85-1.294l1.474-2.334l-2.892-0.861l0.609-2.104l0.425-2.102l-1.556-1.27l-0.167-1.896l-2.437-0.75
		l-0.867-1.514l0.447-2.297l-2.11-0.774l0.522-2.466l-2.408-0.477l-0.337-1.949l-1.34-1.197l-0.461-1.948l-1.921-0.659l-1.998-0.492
		l0.355-2.922l-1.645-0.862l-1.899-0.499l-2.062-0.182l-1.513-0.838l-0.964-1.679l-1.703-0.545l-0.839-1.609l1.508-1.083l1.88-0.192
		l1.73,1.09l2.025-0.63l1.195,2.258l1.534,0.813l1.28,1.251l2.005,0.011l1.387,1.091l2.125,0.184l1.39,1.172l1.058,1.509
		l0.699,1.802l0.833,1.615l1.757,0.835l1.785,0.882l-0.646,2.677l1.109,1.361l1.611,1.051l0.796,1.591l0.697,1.642l1.626,1.12
		l-0.539,2.301l2.306,0.803l0.841,1.577l-0.269,2.093l1.84,1.12l1.452,1.327l-1.571,2.581l1.982,1.123l0.579,1.687l-0.538,2.081
		l1.903,1.225l0.27,1.787l0.399,1.742l-0.333,1.933L302.756,380.347z M257.554,423.397l-1.691,2.143l-1.55-2.401l-2.042,2.431
		l-1.446-2.368l-1.841,0.45l-1.656-0.665l-1.535-1.201l-1.651-0.586l-2.323,2.306l-1.564-1.023l-1.804,0.017l-1.297-2.128
		l-2.058,1.156l-1.709-0.318l-1.72-0.23l-1.691-0.346l-1.531-1.463l-1.63-1.233l-1.874,1.086l-1.754,0.259l-1.748-1.265
		l-1.739,0.833l-1.865-0.912l-1.805,0.143l-1.29,2.57l-2.228-1.715l-1.175,2.198l-1.675,0.44l-1.552,1.2l-1.952,0.403l-1.82-0.786
		l-1.777-0.571l-1.712-1.262l-1.81,1.035l-1.888,0.991l-1.776-0.34l-1.735-0.528l-1.43-1.706l-1.83,0.071l-2.039,0.483l-1.326-1.538
		l-1.048-1.871L184,417.201l-2.121,0.043l-0.923-1.794l-1.363-1.115l-1.947-0.548l-0.757-1.756l-1.531-1.079l0.739-2.634
		l-1.237-1.228l-2.301-0.797l-0.801-1.629l0.112-1.948l-0.109-1.802l-0.297-1.722l-2.131-1.412l1.606-2.029l0.531-1.785
		l-1.376-1.673l-0.205-1.77l1.317-1.713l-1.846-1.893l0.073-1.804l1.643-1.569l-1.121-1.998l1.408-1.533l-0.927-2.059l1.432-1.471
		l-0.359-1.98l3.02-0.854l0.547-1.643l-0.006-1.878l-0.423-2.11l1.46-1.279l0.188-1.89l0.257-1.897l1.618-1.137l0.093-2.046
		l0.982-1.519l1.341-1.265l2.448-0.391l1.215-1.26l0.451-1.914l0.88-1.597l2.023-0.497l1.423-1.029l1.388-1.043l1.379-1.037
		l0.724-1.925l1.466-0.982l1.742-0.523l0.98-1.851l1.594-0.824l1.503-1.064l1.799-0.356l3.036,0.824l0.153-1.469l0.013,1.655
		l-0.456-1.32l2.939-0.302l1.504,2.268l1.922-0.558l1.333,1.43l1.175,1.326l1.388,0.836l2.596-0.406l0.719,1.82l0.254,2.071
		l1.357,1.134l2.515,0.333l-0.696,2.726l1.205,1.36l1.489,1.133l1.815,0.731l1.951,0.289l1.54,0.535l1.332,0.932l1.547,0.561
		l1.54,2.384l1.827-1.571l1.776,0.08l1.822,0.056l1.48-1.414l1.488-1.081l2.288,1.041l2.019-0.294l0.916-1.957l1.265-1.306
		l1.277-1.278l1.74-0.936l0.413-1.962l1.63-1.09l0.216-2.001l0.265-1.945l0.644-1.734l1.774-1.036l1.474-1.146l1.481-0.86
		l1.636,0.738l0.936-1.728l1.805,0.481l1.724,0.6l1.417,1.121l0.605,2.205l2.211,0.008l1.316,1.208l0.598,1.952l2.316,0.188
		l-0.155,2.539l2.105,0.514l1.034,1.446l-0.147,2.258l1.871,0.848l1.756,1.012l-1.119,2.642l3.259,0.305l-0.661,2.285l-0.2,1.982
		l1.615,1.24l1.22,1.449l-1.344,2.26l1.339,1.425l1.691,1.407l-1.693,2.154l0.793,1.617l1.886,1.509l0.021,1.798l-0.449,1.819
		l0.916,1.738l-0.824,1.794l1.18,1.806l0.013,1.811l-1.682,1.651l0.021,1.777l0.921,1.949l-2.101,1.411l0.279,1.865l0.287,1.923
		l-0.549,1.713l-2.395,1.028l1.391,2.451l-2.512,0.824l-0.195,1.849l-0.054,1.998l-0.678,1.7l-1.717,1.007l-0.172,2.111l-2.387,0.36
		l-1.317,1.161l-0.544,1.941l-1.983,0.445l-1.878,0.425l-0.594,2.085l-1.485,0.942l-1.257,1.334l-1.332,1.298l-2.189-0.455
		l-1.252,1.55l-2.039-0.43l-1.404,1.348L257.554,423.397z"/>
</g>
<g>
	<polygon fill="#FFFFFF" points="332.725,177.494 331.617,175.944 330.093,175.048 328.379,174.652 326.651,174.301 
		324.889,174.168 323.151,174.559 321.382,174.524 319.647,174.824 317.985,175.454 316.219,175.611 314.565,176.22 312.844,176.62 
		311.294,177.474 309.606,178.011 308.262,179.155 307.694,180.592 309.467,180.87 311.209,180.709 312.951,180.669 
		314.727,180.818 316.357,180.504 318.009,180.341 319.614,179.933 321.251,179.662 322.876,179.34 324.51,179.055 326.118,178.626 
		327.783,178.509 329.379,178.006 331.045,177.91 	"/>
</g>
<g>
	<path fill="#FFFFFF" d="M174.336,146.536l-2.735-0.884l0.901-2.349l-2.389-0.774l1.163-2.773l-1.372-1.316l-1.248-1.363
		l-1.319-1.279l-0.35-2.315l-2.265-0.246l-0.727-2.136l-2.765,0.823l-1.839-0.35l-1.311-1.297l-1.857-0.196l-1.053-2.133
		l-2.372,1.266l-0.693-3.638l-2.053,0.447l-1.51-1.436l-1.97,0.326l-1.605-1.193l-2.241,1.836l-1.916,0.439l-1.244-3.182
		l-2.211,2.073l-1.661-1.005l-1.622-1.273l-1.998,0.971l-1.647-1.115l-1.891,0.288l-1.644-1.114l-2.022,0.937l-1.848-0.064
		l-1.154-3.355l-2.424,2.573l-1.248-2.606l-2.45,2.218l-1.119-2.793l-2,0.359l-2.106,0.52l-1.794-0.5l-1.297-1.745l-1.754-0.558
		l-1.498-1.114l-0.703-2.533l-1.775-0.434l-1.493-0.943l-2.902,1.032l0.063-3.134l-2.514,0.375l-2.101-0.25l-0.155-2.668
		l-1.375-1.134l-1.483-1.016l-0.11-2.487l-1.901-0.561l-0.932-1.554l-2.453-0.141l-0.492-1.951l-2.619-0.164l0.459-2.647
		l-0.879-1.545l-3.165-0.028l0.12-2.24l0.291-2.228l-2.942-0.479l-0.426-1.837l0.627-2.23l-2.145-1.118l-0.746-1.697l1.316-2.247
		l-1.581-1.473l2.084-2.178l-0.879-1.618l-0.046-1.739l-0.897-1.713l0.575-1.76l-2.645-1.914l3.135-1.546l-0.232-1.79l-1.087-1.984
		l1.429-1.539l0.377-1.731l0.223-1.781l-0.449-2.017l1.766-1.295l0.089-1.869l-0.387-2.1l1.468-1.338l-0.249-2.103l3.21-0.444
		l1.201-1.369l-1.986-3.076l2.731-0.548l0.737-1.632l0.444-1.813l1.372-1.259l1.29-1.298l0.183-1.994l1.911-0.898l-1.006-2.778
		l1.716-1.023l2.33-0.633l1.225-1.358l-0.073-2.165l0.342-1.871l0.376-1.796l1.813-1.098l-0.75-2.069l3.122-1.614l-2.959-1.03
		l-0.609-2.536l-1.939-0.873l-1.962,0.119l-1.705,3.249l-1.91-2.024l-1.788,0.167l-1.646,1.118l-1.547,1.498l-2.188-2.098
		l-1.526,1.595l-2.108-1.168l-1.316,2.258l-2.049-0.719l-1.371,1.751l-1.682,0.595l-1.979-0.275l-1.54,1.028l-1.342,1.474
		l-2.72-1.884l-1.184,1.837l-2.053-0.102l-0.495,3.057l-2.442-0.798l-1.347,1.298l-2.105,0.002l-1.672,0.778l-1.272,1.392
		l-1.015,1.716l-0.984,1.689l-2.826-0.701l-1.134,1.513l-1.815,0.7l0.477,3.242l-3.266-0.825l-1.038,1.568l0.749,3.219l-3.198-0.485
		l-0.02,2.39l-1.18,1.355l-0.607,1.801l-2.121,0.652l0.344,2.453l-1.321,1.25l-2.326,0.635l0.658,2.519l-0.351,1.846l-2.41,0.695
		l-1.912,1.039l-0.033,2.018l-0.338,1.836l-2.634,0.807l0.795,2.322l0.007,1.943l-1.387,1.398l-1.807,1.287l2.017,2.583
		l-1.551,1.388l-0.499,1.73l-1.089,1.574l-1.361,1.533l-0.033,1.867l-0.237,1.811l1.45,2.122l-0.593,1.711l0.545,1.894l-1.294,1.62
		l-1.252,1.662l1.28,1.948l-0.943,1.716l-1.184,1.728l1.698,1.903l-1.334,1.747l-0.291,1.805l-0.41,1.814l1.016,1.803l1.534,1.753
		l-2.216,1.893l1.698,1.708l0.502,1.755l-1.711,1.963l2.13,1.581l-0.694,1.891l-1.393,2.026l3.148,1.328l-0.06,1.819l0.43,1.734
		l0.318,1.755l-0.275,1.897l1.493,1.473l-2.374,2.486l2.155,1.276L19,130.916l0.692,1.656l-1.513,2.419l2.924,0.867l0.984,1.528
		l-0.466,2.11l-1.011,2.397l1.382,1.382l2.259,0.932l-0.936,2.474l0.497,1.802l3.082,0.381l-0.247,2.208l1.739,1.054l1.777,0.982
		l-1.893,3.412l3.656-0.332l-0.016,2.22l1.463,1.142l1.959,0.707l0.536,1.865l-0.464,2.825l1.789,0.832l1.384,1.187l2.345,0.159
		l1.429,1.063l-0.172,2.942l2.865-0.65l0.614,2.122L47.586,173l1.724,0.623l0.706,2.205l0.801,2.221l1.738,0.687l2.299-0.457
		l2.189-0.43l0.649,2.813l1.836,0.31l0.949,2.119l1.907,0.262l2.237-0.525l1.981-0.062l1.434,1.178l1.511,1.029l1.493,1.107
		l1.758,0.426l1.795,0.308l1.715,0.517l1.307,1.739l1.757,0.424l1.853,0.105l1.742,0.446l1.736,0.462l1.371,1.774l2.183-1.161
		l1.51,1.326l1.975-0.481l1.939-0.408l1.449,1.676l1.825,0.064l2.066-1.122l1.464,1.772l1.897-0.381l1.864-0.273l1.365,2.619
		l2.133-1.939l1.669,0.888l1.616,1.374l1.615,1.568l1.881-0.478l1.785,0.297l2.028-2.292l1.651,1.658l1.875-1.075l1.652,2.4
		l1.783,0.719l1.919-3.399l1.728,3.145l1.816-2.731l1.82,2.705l1.77-1.547l1.853,1.117l1.773-0.706l1.616-2.257l1.955,1.678
		l1.597-1.697l2.101,2.043l1.859,0.044l1.701-0.836l1.443-1.825l2.135,1.099l1.482-1.42l1.527-1.091l1.716-0.486l2.019,0.188
		l0.916-2.286l2.535,1.017l0.693-2.397l2.771,0.934l1.208-1.51l-0.156-2.974l2.333-0.084l0.187-2.22l0.744-1.574l3.089-0.008
		l-0.357-2.309l0.436-1.725l2.215-1.009l-0.587-2.098l1.38-1.48l-1.399-2.086l2.872-1.384l-1.852-1.984l-0.099-1.757l0.514-1.764
		l1.319-1.866l-1.777-1.659l-1.058-1.641l0.934-1.929l-0.615-1.697l0.586-1.961l-0.01-1.863l0.504-2.028l-1.924-1.336
		L174.336,146.536z M169.142,166.309l1.752,2.273l-2.244,1.246l0.995,2.365l-2.957,0.663l-0.494,1.744l-0.826,1.59l-0.945,1.533
		l-2.201,0.458l-0.254,2.165l-2.144,0.295l0.073,2.85l-1.1,1.631l-1.843,0.602l-1.269,1.49l-2.366-0.481l-0.752,2.623l-2.987-2.201
		l-1.265,1.612l-2.012-0.318l-1.445,1.305l-1.936-0.274l-1.179,2.641l-1.623,1.194l-2.351-2.487l-1.374,2.701l-1.917-0.435
		l-1.917-0.76l-1.685,1.457l-1.877-0.69l-1.787,0.695l-1.838-0.759l-1.816,1.299l-1.844,0.26l-1.691-3.118l-1.988,2.921
		l-1.629-2.387l-2.098,2.555l-1.516-2.601l-1.928,0.646l-2.004,0.825l-1.842-0.222l-1.548-1.52l-1.819-0.263l-1.664-0.841
		l-1.155-2.368l-1.839-0.095l-1.66-0.633l-2.626,1.61l-0.59-3.094l-2.423,0.808l-2.162,0.047l-0.519-2.651l-1.478-1.015
		l-1.558-0.967l-1.553-1.983l-1.895,0.634l-1.679-0.728l-2.086,1.317l-1.56-1.287l-2.207,1.428l-1.238-2.39l-1.657-0.691
		l-2.506,1.939l-1.313-1.815l-1.216-1.903l-2.55,1.551l-1.528-1.088l-1.051-2.069l-2.328,0.668l-1.712-0.677l-0.695-2.512
		l-2.165,0.143l-0.246-3.018l-1.834-0.414l-1.395-1.095l-1.92-0.385l-1.062-1.544l-3.12,0.974l0.575-3.452l-1.618-0.855l-2.262-0.23
		l-0.495-2.051l-1.253-1.275l-1.386-1.163l-1.95-0.712l-0.16-2.193l-1.543-1.079l-1.993-0.795l-0.362-1.964l-1.92-0.921l1.337-2.958
		l-0.508-1.752l-3.666-0.014l1.035-2.596l-0.95-1.526l-1.251-1.398l-0.251-1.855l-0.307-1.809l-1.5-1.338l0.44-2.069l-2.809-0.942
		l0.289-2.002l1.039-2.179l-0.175-1.791l-1.601-1.433l-1.047-1.606l-0.893-1.664l0.811-1.994l-1.679-1.547l2.661-2.218l-2.686-1.449
		l1.685-1.997l0.27-1.806l-0.375-1.748l-3.309-1.616l2.091-1.896l-0.002-1.793l-0.882-1.798l-1.203-1.837l2.511-1.727l-1.175-1.86
		l1.71-1.681l-1.727-1.954l1.396-1.667l-1.079-1.95l0.181-1.809l1.159-1.647l-0.127-1.856l-0.529-1.956l3.092-1.176l-0.769-2.015
		l1.37-1.497l-1.955-2.405l2.278-1.216l0.082-1.858l1.581-1.358l0.809-1.599l0.198-1.829l-0.102-1.974l-0.011-1.971l2.815-0.701
		l0.345-1.802l1.371-1.297l-1.579-2.862l3.354-0.189l0.56-1.719l-1.417-2.985l3.234-0.055l-0.281-2.354l1.084-1.445l0.576-1.835
		l2.141-0.61l-0.157-2.485l1.494-1.122l2.401-0.239l-0.093-2.608l0.875-1.738l2.539,0.056l2.135-0.271l0.812-1.811l1.12-1.489
		l2.656,0.615l0.522-2.358l1.116-1.596l1.957-0.251l2.167,0.231l0.313-3.256l2.102,0.157l1.64-0.75l1.9-0.1l1.989,0.253l1.537-0.946
		l1.646-0.668l1.245-2.247l1.839-0.159l1.616-1.203l1.987,0.706l1.933,0.752l1.609-1.691l1.881,0.61l1.854,0.933l1.728-1.872
		l1.434,0.949l-1.479,0.327l-1.719,0.727l-0.839,1.892l-0.426,2.272l-2.853-0.543l-0.204,2.393l-0.964,1.515l-2.594,0.061
		l0.346,2.62l-1.81,0.831l-2.408,0.509l1.439,3.093l-1.221,1.299l-0.764,1.576l-0.832,1.538L68.86,42.93l0.342,2.043l-3.368,0.649
		l1.067,2.264L66.787,49.7l-0.289,1.746l-2.545,1.278l2.088,2.215l0.109,1.785l-1.419,1.604l-2.016,1.64l0.595,1.865l1.601,1.835
		l-1.928,1.803l-0.327,1.842l2.631,1.64l-1.143,1.892l1.154,1.662l1.227,1.599l-3.099,2.363l3.488,1.127l-0.885,2.024l0.902,1.609
		l1.532,1.395l-0.224,1.917l-1.512,2.424l1.333,1.443l0.823,1.616l2.103,1.034l0.91,1.521l-1.292,2.642l2.89,0.496l-0.26,2.187
		l1.616,1.112l1.338,1.244l-0.226,2.299l-0.155,2.346l1.309,1.314l2.281,0.5l2.17,0.49l-0.525,2.869l1.696,0.89l0.275,2.308
		l1.755,0.816l2.297,0.133l1.916,0.471l1.071,1.499l1.211,1.36l1.206,1.414l1.635,0.782l1.704,0.637l1.6,0.792l1.133,1.95
		l1.877,0.307l1.851-0.061l1.769,0.281l1.765,0.292l1.525,1.631l2.049-1.368l1.617,1.176l1.912-0.659l1.892-0.573l1.571,1.555
		l1.813-0.068l1.99-1.249l1.556,1.693l1.88-0.458l1.865-0.323l1.399,2.6l2.135-1.935l1.665,0.922l1.56,1.434l1.494,1.655
		l1.877-0.333l1.713,0.475l2.307-2.009l1.379,1.901l2.053-0.7l1.071,2.703l1.478,1.133l2.826-2.686l0.571,3.541l2.706-1.842
		l0.486,3.218l2.252-0.541l0.951,1.905l1.8,0.422l2.71-0.69l0.278,2.592l2.353,0.099l-0.396,2.902l0.845,1.518l1.419,1.069
		l2.195,0.701l-0.545,2.312l1.601,1.19l1.174,1.481l0.414,1.773l-0.486,1.953l1.998,1.461l-1.811,2.045l1.872,1.636l-2.223,1.864
		l0.5,1.74l2.316,1.892L169.142,166.309z"/>
</g>
<g>
	<polygon fill="#FFFFFF" points="66.749,142.725 68.138,143.905 69.497,145.081 70.72,146.404 70.811,148.07 69.701,149.487 
		68.345,150.666 66.943,151.889 65.916,150.45 64.893,149.102 63.907,147.721 62.873,146.377 62.131,144.839 62.311,143.199 
		63.758,141.939 65.541,141.323 	"/>
</g>
<g>
	<polygon fill="#FFFFFF" points="95.635,127.594 94.548,128.652 92.803,128.868 91.143,129.47 89.425,129.058 87.744,128.812 
		86.051,128.546 84.469,127.889 82.963,127.087 81.348,126.518 79.944,125.537 78.49,124.655 77.019,123.785 75.685,122.719 
		74.217,121.812 73.167,120.421 71.672,119.511 70.499,118.258 69.68,116.706 68.542,115.441 67.506,114.086 66.481,112.709 
		65.821,111.124 65.482,109.46 65.089,107.795 65.609,106.15 66.877,105.06 67.927,106.345 69.18,107.508 69.941,109.074 
		70.948,110.45 72.221,111.585 73.516,112.686 74.582,114.021 75.901,115.091 77.415,115.925 78.43,117.349 79.861,118.27 
		81.164,119.355 82.495,120.408 84.013,121.187 85.459,122.064 86.921,122.912 88.369,123.784 89.753,124.782 91.23,125.619 
		92.946,125.961 94.32,127.019 	"/>
</g>
<g>
	<polygon fill="#FFFFFF" points="161.578,150.577 160.129,150.302 158.617,149.517 157.182,148.509 155.631,147.772 
		153.921,147.483 152.197,147.253 150.73,146.248 149.144,145.593 147.464,145.234 145.78,144.891 144.004,144.86 142.526,143.845 
		140.929,143.221 139.354,142.511 137.67,142.175 136.077,141.524 134.424,141.069 132.597,141.211 130.868,141.032 
		129.331,140.174 127.829,139.189 126.035,139.237 124.33,138.971 122.889,137.788 120.979,138.228 119.543,137.027 
		117.794,136.897 116.071,136.666 114.643,135.466 112.748,135.779 111.253,134.827 109.818,133.743 108.105,133.472 
		106.394,133.13 105.025,132.096 106.207,130.898 107.96,131.183 109.676,130.873 111.35,131.794 113.054,131.84 114.779,131.596 
		116.641,131.224 118.12,132.244 119.5,133.235 121.007,134.027 122.656,134.469 124.026,135.8 125.834,135.72 127.441,136.364 
		129.123,136.703 130.881,136.605 132.486,137.366 134.222,137.341 135.888,137.779 137.595,137.965 139.274,138.303 
		140.93,138.774 142.601,139.113 144.357,138.995 145.954,139.697 147.731,139.599 149.495,139.684 150.976,140.7 152.57,141.313 
		154.349,141.584 155.897,142.41 157.197,143.604 158.449,144.812 159.027,146.561 160.056,147.857 160.925,149.285 	"/>
</g>
<g>
	<polygon fill="#FFFFFF" points="128.655,148.431 130.338,148.887 132.089,148.967 133.811,149.318 135.482,149.768 
		136.966,150.646 137.259,152.304 137.501,153.985 136.315,154.657 134.853,154.1 133.378,153.591 131.886,153.169 130.447,152.591 
		128.925,152.105 128.328,150.677 127.443,149.437 127.129,148.152 	"/>
</g>
<g>
	<polygon fill="#FFFFFF" points="163.971,161.04 162.775,162.204 161.158,162.847 159.412,162.65 157.721,162.867 156.055,162.514 
		154.364,162.258 152.754,161.69 151.261,160.852 149.641,160.293 148.111,159.529 146.653,158.633 145.175,157.757 143.98,156.506 
		142.63,155.458 141.368,154.299 140.566,152.771 139.886,151.338 141.162,150.385 142.804,150.998 144.426,151.477 
		146.103,151.862 147.5,152.913 149.182,153.327 150.726,154.047 152.133,155.022 153.603,155.893 155.217,156.487 156.894,157.018 
		158.661,157.2 160.44,156.955 162.187,157.278 163.682,158.097 164.652,159.453 	"/>
</g>
<g>
	<polygon fill="#FFFFFF" points="96.407,167.513 94.911,166.449 95.052,164.262 92.913,164.04 92.279,161.959 90.583,161.372 
		88.821,161.221 87.152,160.804 85.499,160.13 83.785,160.172 82.124,159.874 80.26,160.976 78.845,159.428 77.299,158.91 
		75.389,159.104 74.322,157.604 73.039,156.438 70.921,156.29 70.028,154.541 70.624,152.707 71.729,151.115 72.95,149.732 
		74.748,148.783 76.688,148.94 77.942,150.879 79.861,150.43 81.511,150.966 83.102,151.717 84.74,152.3 86.735,151.501 
		88.29,152.404 89.952,152.901 91.611,153.421 93.478,153.218 94.673,155.298 96.347,155.718 97.973,156.288 100.099,155.461 
		101.578,156.565 102.736,157.69 104.143,158.26 105.558,157.92 106.695,156.859 108.464,156.644 109.703,154.998 111.559,155.183 
		113.155,154.366 114.945,154.711 116.659,154.891 118.359,154.113 120.069,154.452 121.722,155.072 123.607,154.079 
		125.294,154.548 126.608,156.472 128.259,156.831 130.35,155.802 131.633,157.42 133.382,157.598 134.693,158.99 136.402,159.296 
		137.846,160.298 140.078,159.333 141.443,160.541 143.019,161.219 144.569,161.964 146.069,162.843 147.779,163.167 
		149.484,163.481 150.725,165.194 152.533,165.205 154.368,164.992 156.124,164.919 157.62,166.126 159.325,165.594 
		161.066,165.695 162.926,165.814 164.265,167.206 164.402,168.803 164.625,170.432 163.697,171.86 162.667,173.171 
		162.107,174.913 161.388,176.732 159.674,177.473 157.55,177.185 156.169,177.998 154.329,179.266 153.153,177.744 
		152.765,175.673 150.712,175.381 150.218,173.367 147.869,173.487 146.43,172.583 145.978,170.419 144.049,170.15 143.323,168.231 
		141.581,167.745 140.558,166.141 138.616,166.049 137.373,164.737 135.863,163.885 134.104,163.608 132.357,163.416 
		131.057,161.82 129.07,162.67 127.535,161.622 125.804,161.624 124.1,161.106 122.41,162.094 120.783,162.577 119.153,162.86 
		117.37,162.589 115.531,162.408 114.007,163.276 112.749,164.73 110.888,164.679 109.226,165.123 107.511,165.422 106.439,167.271 
		104.531,166.974 103.234,168.674 101.331,167.709 99.699,168.096 97.971,168.22 	"/>
</g>
<g>
	<polygon fill="#FFFFFF" points="38.611,139.084 39.905,138.757 41.088,136.812 43.016,137.294 44.74,136.451 46.306,137.976 
		47.649,138.811 50.153,137.918 50.299,140.439 52.649,140.628 52.407,142.974 54.087,143.907 54.382,145.742 55.557,147.05 
		57.507,147.913 57.443,149.956 59.103,150.948 58.934,153.146 59.825,154.688 61.192,155.857 63.025,156.497 63.729,158.344 
		65.492,158.904 67.12,159.441 68.716,159.937 70.172,160.959 72.106,160.567 73.255,162.309 75.21,162.017 76.203,163.94 
		77.85,164.386 79.995,163.871 81.1,165.451 82.979,165.514 84.594,166.087 85.406,168.195 87.313,168.191 88.923,168.743 
		90.027,170.353 91.869,170.384 93.22,171.546 95.16,171.133 96.308,173.126 98.248,172.382 99.894,172.578 101.511,173.055 
		103.196,173.919 104.826,172.846 106.358,172.094 108.125,172.387 109.644,171.677 111.421,171.531 113.056,170.953 
		114.704,170.63 115.981,169.604 117.676,170.018 119.39,169.744 121.086,169.998 122.844,169.871 124.436,170.741 126.03,171.476 
		127.999,170.589 129.431,171.971 131.113,172.33 133.126,171.633 134.423,173.265 136.237,173.296 137.602,174.559 
		139.591,174.263 140.744,175.873 142.803,175.734 143.386,177.772 145.187,178.343 147.083,179.1 147.912,180.95 146.699,182.804 
		145.713,184 144.03,184.177 142.632,185.095 140.979,185.294 139.343,185.612 137.669,185.698 136.036,186.358 134.311,185.607 
		132.657,186.519 130.955,185.612 129.273,185.919 127.585,186.179 125.868,187.17 124.173,186.951 122.532,185.497 
		120.839,185.463 119.122,185.815 117.44,185.527 115.726,185.744 113.979,186.382 112.325,185.699 110.665,185.134 
		108.921,185.575 107.288,184.734 105.61,184.455 103.896,184.584 102.117,185.614 101.388,184.921 99.866,183.433 97.668,183.443 
		96.934,181.588 95.177,181.121 93.985,179.831 92.449,179.069 91.252,177.712 89.842,176.695 88.232,176.062 86.042,176.682 
		84.746,175.44 83.01,175.172 81.441,174.524 80.325,172.751 78.34,173.118 76.891,172.138 75.695,170.504 73.658,171.031 
		72.502,169.31 70.957,168.594 68.92,169.067 67.663,167.664 65.608,168.083 64.098,167.251 62.473,166.655 61.161,165.448 
		60.023,163.981 58.34,163.484 57.417,161.777 55.91,161.006 54.79,159.701 52.865,159.422 51.658,158.218 50.507,156.968 
		48.366,156.694 48.479,154.247 47.312,153.039 45.932,151.986 44.899,150.64 43.594,149.475 42.593,148.086 41.253,146.888 
		41.823,144.61 39.424,143.941 40.276,141.621 38.484,140.569 	"/>
</g>
<g>
	<polygon fill="#FFFFFF" points="33.18,123.844 34.772,123.433 36.36,123.029 37.989,122.833 39.552,123.28 40.619,124.483 
		41.213,126.008 41.448,127.632 41.676,129.286 39.894,129.811 38.075,130.011 36.245,130.008 34.697,129.04 33.863,127.424 
		33.488,125.649 	"/>
</g>
<g>
	<polygon fill="#FFFFFF" points="30.29,104.372 30.599,102.652 30.016,100.94 30.448,99.232 30.574,97.523 30.769,95.82 
		30.532,94.095 30.158,92.352 31.023,90.696 30.654,88.944 30.701,87.222 31.493,85.583 31.077,83.802 31.606,82.14 32.394,80.527 
		31.756,78.676 32.191,77.002 32.51,75.305 32.911,73.625 33.552,72.009 33.681,70.253 35.102,68.904 35.154,67.106 35.687,65.46 
		36.382,63.869 37.836,62.717 38.128,60.852 39.17,59.417 40.741,58.531 42.477,58.172 43.941,57.444 45.601,56.78 46.94,57.373 
		45.593,57.905 44.916,59.673 43.525,60.711 42.855,62.296 42.349,63.914 40.637,65.008 41.004,66.963 40.086,68.439 39.786,70.112 
		39.744,71.834 39.161,73.437 38.166,74.991 38.155,76.714 37.994,78.41 38.303,80.149 38.213,81.84 37.338,83.48 37.986,85.221 
		37.487,86.899 37.691,88.607 37.797,90.309 37.295,92.002 36.8,93.703 36.881,95.408 37.365,97.108 37.816,98.803 37.097,100.516 
		37.328,102.216 36.896,103.93 37.125,105.631 37.615,107.327 37.916,109.029 37.752,110.733 37.604,112.437 37.363,114.124 
		37.193,115.809 36.081,116.637 35.005,115.295 34.548,113.622 33.781,112.12 32.959,110.63 32.276,109.079 31.62,107.511 
		31.394,105.774 	"/>
</g>
<g>
	<path fill="#FFFFFF" d="M387.086,108.867l-1.009-1.777l-2.368-1.108l1.436-2.39l-2.017-1.17l0.806-2.236l-1.059-1.518l-1.799-1.188
		l-0.365-1.792l0.141-2.037l-1.048-1.499l-0.3-1.858l-2.156-0.934l-0.536-1.734l-0.561-1.73l-1.031-1.481l-0.673-1.68l0.086-2.13
		l-1.871-0.989l-1.346-1.282l0.323-2.329l-1.158-1.408l-1.897-0.903l-0.375-1.926l-2.644-0.326l1.043-2.986l-2.088-0.689
		l-1.247-1.304l-1.712-0.914l-0.603-1.826l-1.177-1.353l-1.948-0.637l-0.266-2.21l-1.206-1.341l-0.737-1.855l-2.369-0.071
		l-0.385-2.33l-1.258-1.364l-2.783,0.716l-1.57-0.815l-0.7-2.22l-1.695-0.67l-1.828-0.344l-1.773-0.338l-1.567-0.798l-1.556-0.943
		l-1.692-0.599l-1.898,0.801l-1.708,0.109l-1.749-1.751l-1.916-0.662l-1.35,2.772l-2.118-1.233l-1.758,0.499l-1.325,1.478
		l-2.746,0.175l1.531,2.027l1.638,1.12l1.388,1.307l-0.969,2.567l1.024,1.482l0.43,1.775l3.067,0.578l-0.222,2.085l0.597,1.713
		l-0.761,2.235l3.041,0.783l-0.729,2.187l1.473,1.414l0.664,1.7l1.093,1.58l-1.379,2.275l2.177,1.306l-0.937,2.1l1.768,1.47
		l-1.511,2.159l0.631,1.714l0.402,1.762l0.353,1.774l-0.9,1.908l1.183,1.691l-0.882,1.852l1.826,1.733l0.518,1.83l-0.47,1.827
		l0.375,1.864l-1.404,1.705l1.338,2.03l-2.836,1.345l0.398,1.908l-1.228,1.497l0.03,1.871l-1.252,1.39l0.831,2.393l-0.381,1.946
		l-2.919,0.226l0.383,2.609l-1.679,0.976l-1.86,0.635l-0.821,1.914l-1.892,0.442l-1.378,1.285l-1.917,0.152l-1.369,1.583
		l-1.729,0.743l-2.287-1.958l-1.376,2.67l-2.059-1.548l-1.403,2.489l-2.072-1.59l-1.661,0.972l-1.65,1.14l-1.756,0.338l-1.887-0.671
		l-1.749,0.38l-1.808-0.042l-1.994-1.251l-1.714,0.664l-1.774,0.282l-1.419,2.25l-2.136-1.671l-1.473,1.761l-1.55,1.226
		l-2.091-1.114l-1.734,0.457l-1.683,0.641l-2.126-0.819l-1.506,1.247l-1.823,0.277l-1.21,1.892l-1.936,0.005l-1.008,2.105
		l-2.293-0.636l-1.674,0.713l-0.486,2.674l-2.027,0.089l-2.109,0.178l0.376,2.504l-0.72,1.338l-1.177,1.73l1.526,1.567l0.584,1.626
		l-0.793,2.188l1.593,1.295l-0.941,2.497l1.331,1.399l0.846,1.645l1.513,1.226l0.615,1.787l2.803,0.284l-0.878,2.857l1.379,1.263
		l1.985,0.772l0.454,1.966l1.181,1.394l1.335,1.261l1.806,0.834l0.482,2.017l1.57,1.029l1.907,0.683l0.813,1.745l1.902,0.643
		l-0.147,2.803l1.117,1.507l3.039-0.692l0.295,2.458l1.504,1.049l1.702,0.779l1.228,1.411l1.332,1.311l1.934,0.377l1.147,1.692
		l2.456-0.838l1.349,1.337l1.372,1.783l1.91,0.587l1.948-0.997l1.596-1.112l1.915-0.299l1.741,1.029l1.842-1.025l1.735,2.399
		l1.836-1.932l1.806,1.502l1.825,0.316l1.818-0.252l1.669-2.631l1.908,1.585l1.804-0.132l1.716-0.885l1.643-1.196l2.064,1.651
		l1.603-1.299l2.016,0.884l1.431-1.853l1.975,0.496l1.45-1.48l1.683-0.579l1.918,0.09l1.556-0.959l1.378-1.326l2.535,1.279
		l1.223-1.651l1.961-0.168l0.58-2.621l2.284,0.313l1.297-1.31l1.966-0.361l1.561-0.97l1.178-1.443l0.922-1.689l0.872-1.677
		l2.553-0.016l0.973-1.593l1.583-1.054l-0.55-2.763l2.883-0.085l0.812-1.674l-0.835-2.71l2.755-0.402l-0.153-2.183l0.889-1.556
		l0.363-1.821l1.707-1.168l-0.497-2.188l0.975-1.517l1.844-1.198l-0.77-2.202l0.114-1.839l1.884-1.257l1.441-1.444l-0.167-1.929
		l0.098-1.836l2.031-1.351l-0.85-2.061l-0.179-1.88l0.983-1.632l1.327-1.586l-1.816-2.15l1.124-1.628l0.266-1.776l0.752-1.71
		l0.976-1.694l-0.091-1.833l0.083-1.809l-1.26-1.936l0.39-1.765l-0.509-1.843l0.968-1.723l0.943-1.74l-1.059-1.868L387.086,108.867z
		 M378.06,126.22l0.111,1.994l1.532,2.139l-2.46,1.337l1.072,2.077l-1.923,1.404l-0.025,1.839l0.707,2.045l-0.848,1.642
		l-1.432,1.454l-0.229,1.804l-1.068,1.533l0.839,2.195l-0.923,1.589l-0.951,1.565l-0.512,1.741l-0.947,1.553l-1.793,1.126
		l0.18,2.092l-0.435,1.818l-2.205,0.792l-0.755,1.614l-0.093,2.087l-1.677,1.005l0.454,2.64l-3.153-0.275l-0.253,2.159l-1.126,1.421
		l-0.801,1.805l-1.842,0.667l-1.413,1.132l-0.873,1.902l-2.256-0.082l-1.576,0.863l-1.956,0.142l-0.898,2.182l-2.264-0.632
		l-1.73,0.419l-0.893,2.726l-1.669,0.795l-2.169-0.916l-1.665,0.715l-1.636,0.926l-1.695,0.773l-1.823,0.135l-1.856-0.158
		l-1.811,0.044l-1.677,1.287l-1.791,0.415l-1.93-1.612l-1.829-0.713l-1.695,2.589l-1.852-1.664l-1.795-0.066l-1.794,0.845
		l-1.779-1.445l-1.805,0.48l-1.821,0.769l-1.832,0.488l-1.349-2.081l-1.989-0.551l-1.955-0.76l-2.222,2.318l-1.745-0.792
		l-1.681-0.845l-0.902-2.149l-2.779,1.427l-0.841-2.13l-2.016-0.146l-1.564-0.906l-1.822-0.572l-0.252-2.633l-2.509,0.254
		l-0.448-2.237l-2.274-0.171l0.038-2.617l-1.459-1.044l-1.288-1.224l-1.245-1.271l-0.252-2.068l-1.884-0.772l-0.215-2.012
		l-2.448-0.489l-1.384-1.267l-0.535-1.781l-1.275-1.373l0.327-2.161l-2.186-1.009l1.723-2.604l-1.338-1.388l0.243-1.901
		l-1.044-1.284l1.575-0.525l0.225-2.514l1.128-1.607l2.757,0.962l0.622-2.555l1.886-0.31l1.957-0.006l1.308-1.603l1.92,0.028
		l1.581-0.989l1.905,0.139l1.504-1.426l1.721-0.622l2.242,2.008l1.321-2.693l2.075,1.446l1.426-2.443l2.067,1.598l1.67-0.985
		l1.652-1.16l1.767-0.362l1.908,0.645l1.756-0.405l1.82,0.015l2.026,1.217l1.718-0.699l1.784-0.325l1.363-2.292l2.205,1.589
		l1.399-1.832l1.47-1.316l2.168,0.953l1.696-0.623l1.608-0.836l2.247,0.497l1.309-1.504l1.762-0.661l0.742-2.138l1.867-0.545
		l0.291-2.31l2.366-0.208l1.284-1.328l-0.684-2.626l1.764-0.971l1.777-1.133l-1.046-2.37l0.877-1.534l1.598-1.396l-0.842-2.022
		l0.174-1.748l1.712-1.564l-0.777-1.879l2.044-1.688l-0.462-1.847l0.089-1.823l-0.696-1.794l0.364-1.829l-2.282-1.624l2.192-2.008
		l-0.56-1.758l-1.329-1.636l0.594-1.904l-0.32-1.774l-0.517-1.737l-1.136-1.607l0.609-1.962l-0.824-1.663l-1.284-1.543l0.21-1.894
		l-1.282-1.522l1.61-2.284l-0.129-1.84l-2.923-1.053l1.107-2.229l-0.877-1.623l-1.103-1.501l-0.284-1.834l-0.3-1.798l-1.222-1.506
		l0.452-1.937l-2.063-1.616l0.995-1.958l1.831,0.018l1.292,0.449l1.924-0.18l1.817,0.479l1.748,0.705l0.876,1.843l2.103,0.307
		l-0.194,2.951l2.646-0.226l0.261,2.332l1.023,1.505l1.385,1.146l3.089-0.435l-0.031,2.495l1.184,1.361l1.713,0.903l1.92,0.747
		l-0.329,2.635l1.92,0.763l0.142,2.197l2.291,0.503l0.335,2.022l1.914,0.831l1.118,1.434l0.483,1.884l1.328,1.283l1.609,1.105
		l-0.831,2.723l1.782,0.995l0.316,1.931l2.648,0.507l-0.331,2.305l1.228,1.381l0.134,1.988l0.688,1.669l1.145,1.433l1.383,1.334
		l1.327,1.388l-0.928,2.378l1.018,1.514l0.16,1.847l2.639,0.986l-1.598,2.398l0.769,1.62l2.554,1.255l-1.746,2.181l1.468,1.599
		l0.115,1.819l0.533,1.834l-1.147,1.752l1.045,2.034l-0.793,1.76L378.06,126.22z"/>
</g>
<g>
	<polygon fill="#FFFFFF" points="314.092,144.026 312.803,145.177 311.133,145.72 309.426,146.105 307.836,146.87 306.019,146.708 
		304.407,147.511 302.7,147.896 300.954,147.961 299.191,147.663 297.494,148.432 295.744,148.183 294.007,148.223 292.26,147.873 
		290.532,148.193 288.793,148.174 287.055,148.252 285.353,148.733 283.614,148.774 281.934,149.241 280.111,148.984 
		278.552,149.929 276.897,150.425 275.174,151.216 274.127,149.569 273.294,148.203 273.88,146.604 275.419,145.764 
		276.946,144.925 278.594,144.354 280.315,144.052 281.918,143.248 283.746,143.567 285.465,143.364 287.158,142.961 
		288.881,142.753 290.572,142.216 292.299,141.958 294.05,141.987 295.811,142.289 297.549,142.303 299.283,142.163 
		301.018,141.627 302.768,141.59 304.52,141.555 306.233,142.317 308.012,141.789 309.703,142.397 311.473,142.376 313.029,143.226 
			"/>
</g>
<g>
	<polygon fill="#FFFFFF" points="347.014,117.033 346.849,118.661 345.991,120.189 345.24,121.741 344.326,123.205 343.486,124.709 
		342.629,126.212 341.515,127.541 340.69,129.086 339.404,130.277 338.53,131.806 337.097,132.854 336.18,134.366 335.04,135.683 
		333.613,136.706 332.34,137.883 331.163,139.185 329.53,139.901 328.175,140.977 326.724,141.958 324.991,142.17 323.429,142.04 
		322.113,141.008 321.92,139.24 323.641,138.91 325.191,138.139 326.815,137.505 328.262,136.534 329.526,135.336 330.578,133.946 
		332.034,132.921 333.126,131.567 333.896,129.975 335.005,128.642 336.072,127.27 336.84,125.689 338.032,124.411 339.144,123.085 
		340.122,121.655 341.161,120.259 342.407,119.039 343.786,117.954 345.366,117.174 	"/>
</g>
<g>
	<polygon fill="#FFFFFF" points="351.368,86.39 351.019,88.121 351.267,89.839 351.237,91.569 351.163,93.294 351.289,95.031 
		350.484,96.165 349.652,94.628 349.096,92.991 348.775,91.285 348.34,89.617 347.425,88.085 347.328,86.319 347.002,84.618 
		346.284,83.027 345.685,81.398 345.295,79.71 344.927,78.016 344.15,76.439 343.74,74.758 343.159,73.126 342.8,71.428 
		342.378,69.748 341.926,68.08 341.164,66.56 341.578,65.025 342.483,66.541 343.734,67.723 344.466,69.254 345.315,70.709 
		346.168,72.16 346.948,73.654 347.703,75.162 348.394,76.703 348.954,78.299 349.71,79.821 349.905,81.542 350.631,83.075 
		351.171,84.689 	"/>
</g>
<g>
	<polygon fill="#FFFFFF" points="348.78,103.174 350.479,103.286 351.716,104.464 351.955,106.178 351.787,107.914 351.487,109.636 
		350.992,111.281 349.631,110.576 348.68,109.384 348.432,107.843 348.627,106.286 348.771,104.713 	"/>
</g>
<g>
	<polygon fill="#FFFFFF" points="369.797,124.408 367.964,124.617 367.003,126.356 365.736,127.514 363.807,127.696 
		362.847,129.277 360.909,129.555 359.476,130.523 358.746,132.299 357.684,133.652 356.432,134.793 354.86,135.63 353.586,136.776 
		352.178,137.81 351.227,139.254 349.797,140.282 349.727,142.45 347.799,143.066 346.702,144.371 346.471,146.389 344.624,147.072 
		344.129,148.889 342.88,150.069 341.33,150.962 340.011,152.042 339.067,153.502 338.088,154.973 336.353,155.538 334.885,156.376 
		333.582,157.457 332.206,158.467 330.915,159.772 329.052,159.711 327.383,160.021 325.685,160.097 324.075,160.567 
		322.392,160.508 320.731,160.624 319.049,161.477 317.319,161.808 315.652,161.142 314.052,160.246 312.272,160.697 
		310.54,160.671 309.074,159.371 307.133,160.209 305.726,158.825 303.956,158.839 302.214,158.694 300.878,157.259 298.896,157.8 
		297.462,156.671 299.082,156.733 300.64,156.204 302.32,155.813 303.976,156.114 305.707,155.671 307.314,156.368 309.023,156.147 
		310.56,157.472 312.237,157.596 313.955,157.287 315.67,156.721 317.325,156.852 318.984,157.136 320.652,157.191 322.274,156.775 
		324.171,157.501 325.525,156.184 327.152,155.374 327.911,153.844 328.695,152.219 330.487,151.826 331.909,150.807 
		333.631,150.535 335.287,150.024 337.004,149.713 338.777,149.484 340.491,148.883 341.73,147.452 343.323,146.435 
		343.475,144.525 343.236,142.761 344.337,141.219 344.894,139.621 344.978,137.777 345.745,136.208 346.924,134.903 
		348.017,133.575 349.834,132.886 350.846,131.55 351.92,130.25 353.375,129.337 353.703,127.187 355.515,126.669 356.18,124.861 
		358.069,124.434 359.337,123.304 360.322,121.877 361.72,120.876 363.165,119.881 363.891,118.259 365.253,117.142 
		366.157,115.673 366.754,114.041 367.598,112.549 367.692,110.769 368.995,109.334 368.456,107.394 370.012,106.223 
		370.125,108.201 370.908,109.729 371.487,111.385 372.219,113.047 372.252,114.832 371.964,116.616 372.629,118.374 
		372.485,120.156 371.87,121.842 371.317,123.529 	"/>
</g>
<g>
	<polygon fill="#FFFFFF" points="338.531,174.879 338.013,172.457 336.419,171.504 334.765,170.673 332.671,171.408 
		331.082,170.618 329.359,170.221 327.596,170.298 325.834,170.282 324.075,170.406 322.28,170.085 320.594,171.246 
		318.791,170.711 317.014,171.14 315.285,170.472 313.63,169.896 311.752,170.029 310.242,169.033 309.257,167.477 307.222,167.631 
		305.721,167.039 304.181,165.381 302.366,165.406 300.695,166.931 298.862,166.07 297.176,166.668 295.329,166.156 293.65,166.71 
		291.884,166.582 290.31,168.327 288.508,167.846 286.745,167.685 285.084,167.093 283.933,166.082 285.402,165.604 
		287.046,165.031 288.925,165.84 290.539,165.109 292.154,164.252 293.818,163.62 295.615,164.27 297.278,163.435 299.014,163.513 
		300.737,163.333 302.472,163.829 304.189,164.309 305.908,163.936 307.613,164.262 309.315,164.493 311.063,163.98 
		312.832,163.372 314.513,163.928 316.125,165.267 317.86,165.144 319.656,164.197 321.346,164.583 323.016,165.787 
		324.763,164.753 326.508,165.796 328.135,164.22 329.775,163.834 331.675,164.811 333.137,163.566 335.092,164.03 336.516,162.905 
		338.408,162.822 339.53,161.259 341.266,160.771 342.744,159.844 343.862,158.46 344.916,157.051 346.882,156.655 347.286,154.6 
		348.97,153.853 350.003,152.467 351.443,151.445 351.902,149.577 352.76,148.069 353.817,146.727 355.344,145.747 356.88,144.755 
		357.664,143.195 358.004,141.324 359.566,140.325 360.739,139.046 362.019,137.829 362.035,135.682 363.959,135.342 
		364.842,133.454 366.874,133.854 368.396,133.429 369.856,134.249 369.326,136.016 370.511,137.736 370.466,139.519 
		368.567,140.804 368.909,142.676 367.984,144.149 367.878,145.937 367.123,147.474 365.763,148.717 365.642,150.554 
		365.062,152.183 364.242,153.69 363.719,155.376 362.015,156.345 361.332,157.936 360.549,159.475 358.606,160.185 
		357.948,161.808 357.795,163.87 355.814,164.45 354.76,165.787 354.195,167.619 351.973,167.782 351.483,169.784 350.211,170.964 
		348.363,171.32 346.79,171.955 345.672,173.5 343.831,173.425 342.194,173.575 340.598,174.833 	"/>
</g>
<g>
	<g>
		<polygon fill="#FFFFFF" points="229.477,398.663 231.32,398.344 233.005,397.693 234.502,396.673 235.78,395.389 237.024,394.156 
			235.473,394.199 233.869,394.411 232.348,394.959 230.989,395.817 230.002,397.078 		"/>
	</g>
	<g>
		<polygon fill="#FFFFFF" points="233.752,400.548 234.21,402.294 235.4,403.637 237.147,403.595 238.756,402.916 240.23,401.944 
			241.515,400.732 242.627,399.358 243.899,398.125 244.963,396.623 243.161,396.553 241.439,396.755 239.779,397.211 
			238.194,397.86 236.679,398.668 235.246,399.619 		"/>
	</g>
	<g>
		<polygon fill="#FFFFFF" points="192.793,413.251 194.655,413.4 196.402,413.08 198.138,412.818 199.837,412.235 201.588,412.241 
			203.354,412.289 205.084,412.026 206.956,412.651 208.582,411.725 210.355,411.685 212.15,411.761 213.729,410.605 
			215.39,409.903 217.141,409.719 218.859,409.31 220.62,409.183 222.478,409.951 224.212,409.785 225.907,408.997 227.671,409.168 
			229.425,408.668 231.18,409.006 232.905,409.437 234.647,409.565 236.271,410.35 238.073,410.233 239.65,411.027 241.194,411.811 
			243.307,411.326 244.404,413.055 245.95,413.838 247.903,414.091 249.292,416.142 249.48,413.915 249.533,412.278 
			249.645,410.452 250.858,409.147 251.924,407.677 253.517,406.854 255.41,406.623 256.389,404.802 257.86,403.871 
			259.728,403.582 261.329,402.733 261.874,400.852 263.572,399.299 261.347,399.743 259.54,399.23 257.894,399.972 
			256.291,400.673 254.51,401.11 253.423,402.633 252.363,404.065 250.295,404.332 249.199,405.721 247.815,406.786 
			247.137,408.624 245.196,409.011 243.782,409.943 243.047,410.884 243.137,409.739 244.011,408.276 243.841,406.307 
			244.95,404.928 246.017,403.507 247.826,402.988 248.831,401.398 250.294,400.446 252.241,400.47 253.536,399.225 
			255.124,398.577 256.588,397.692 258.379,397.361 260.227,396.119 258.839,394.312 256.776,394.161 255.314,392.675 
			253.898,394.303 251.906,394.373 250.901,395.906 249.674,397.2 249.336,398.405 249.716,396.426 247.762,397.973 
			246.233,398.716 245.228,400.123 243.491,401.059 243.195,402.989 242.252,404.528 241.218,406.047 239.902,407.39 
			238.047,407.918 236.776,408.131 236.759,406.715 237.339,404.921 238.752,403.557 239.153,401.671 239.35,399.58 
			237.743,398.205 235.876,398.529 234.303,399.033 233.852,400.875 232.539,401.997 231.153,403.166 228.932,403.123 
			228.838,401.038 229.609,399.489 230.889,398.298 231.324,396.603 231.812,395.325 230.433,395.008 228.706,394.857 
			226.738,394.821 225.394,396.222 224.849,398.014 223.883,399.595 223.328,401.052 222.071,401.52 220.124,401.569 
			220.488,399.659 221.341,398.144 221.973,396.438 223.264,395.207 224.067,393.639 225.75,391.858 223.359,392.309 
			221.923,393.716 220.371,394.584 218.686,395.319 217.193,396.407 215.921,397.746 215.542,399.735 213.768,400.733 
			212.512,402.119 212.124,404.017 211.217,405.682 209.737,404.669 208.339,403.476 208.931,401.6 210.483,400.42 211.021,398.555 
			212.601,397.519 213.33,395.726 214.937,394.761 215.876,393.159 218.035,391.882 215.739,391.802 214.168,392.796 
			213.144,394.277 211.652,395.147 210.678,396.584 209.613,397.996 207.945,398.688 206.783,399.735 206.238,401.123 
			205.318,402.638 203.756,403.79 202.797,405.206 202.063,406.797 200.475,406.882 200.916,405.124 201.364,403.504 
			201.958,401.92 202.661,400.38 202.987,398.612 203.926,397.15 205.101,395.502 203.793,397.149 202.487,398.383 201.326,399.759 
			199.972,400.935 198.031,401.624 197.642,403.636 196.434,404.969 196.013,406.789 195.157,408.317 193.534,409.576 
			193.423,411.449 		"/>
	</g>
	<g>
		<polygon fill="#FFFFFF" points="258.418,402.483 256.97,403.538 255.492,404.509 254.098,405.598 252.613,406.568 
			251.318,407.793 249.904,408.864 248.559,410.017 247.375,411.333 246.341,412.777 246.198,414.566 247.658,415.634 
			249.4,416.005 251.25,416.18 251.337,414.402 252.179,412.915 253.336,411.675 254.671,410.642 255.882,409.442 257.329,408.557 
			258.723,407.593 259.971,406.441 260.738,404.895 259.756,403.523 		"/>
	</g>
	<g>
		<polygon fill="#FFFFFF" points="254.683,416.701 256.498,416.06 258.18,415.18 259.681,414.019 260.97,412.633 262.015,411.061 
			262.836,409.394 261.258,409.758 259.782,410.498 258.334,411.286 257.129,412.413 256.1,413.699 255.249,415.115 		"/>
	</g>
</g>
</svg>
